# Blender v2.79 (sub 0) OBJ File: ''
# www.blender.org
mtllib cornellTextCoords.mtl
o RightBox
v 0.277400 -1.001200 0.464000
v 0.277400 -1.001200 -0.002800
v 0.744400 -1.001200 -0.002800
v 0.744400 -1.001200 0.464000
v 0.277400 -0.534200 0.464000
v 0.744400 -0.534200 0.464000
v 0.744400 -0.534200 -0.002800
v 0.277400 -0.534200 -0.002800
v 1.000000 1.000000 1.000000
v -1.000000 1.000000 1.000000
v 1.000000 1.000000 -1.000000
v -1.000000 1.000000 -1.000000
v -1.000000 -1.000000 -1.000000
v 1.000000 -1.000000 -1.000000
v -1.000000 1.000000 -1.000000
v 1.000000 1.000000 -1.000000
v -1.000000 -1.000000 -1.000000
v -1.000000 -1.000000 1.000000
v 1.000000 -1.000000 -1.000000
v 1.000000 -1.000000 1.000000
v -1.000000 -1.000000 1.000000
v -1.000000 -1.000000 -1.000000
v -1.000000 1.000000 1.000000
v -1.000000 1.000000 -1.000000
v -0.488900 -1.000500 -0.004800
v -0.771000 -1.000500 -0.417600
v -0.358100 -1.000500 -0.699700
v -0.076000 -1.000500 -0.286800
v -0.488900 0.015800 -0.004800
v -0.076000 0.015800 -0.286800
v -0.358100 0.015800 -0.699700
v -0.771000 0.015800 -0.417600
v 1.000000 -1.000000 -1.000000
v 1.000000 -1.000000 1.000000
v 1.000000 1.000000 -1.000000
v 1.000000 1.000000 1.000000
vt 0.812590 0.190449
vt 0.890258 0.190476
vt 0.890231 0.268110
vt 0.812564 0.268083
vt 0.756933 0.190449
vt 0.811853 0.245368
vt 0.756933 0.300287
vt 0.849926 0.777443
vt 0.772258 0.777443
vt 0.772258 0.699775
vt 0.850637 0.777409
vt 0.850637 0.699775
vt 0.928304 0.699775
vt 0.898153 0.896097
vt 0.898153 0.973731
vt 0.820486 0.973731
vt 0.851946 0.840467
vt 0.797027 0.895386
vt 0.742108 0.840467
vt 0.742108 0.839756
vt 0.797027 0.784837
vt 0.851946 0.839756
vt 0.840811 0.178673
vt 0.840811 0.101039
vt 0.918478 0.101039
vt 0.819775 0.896097
vt 0.819775 0.973731
vt 0.742108 0.973731
vt 0.667820 0.333060
vt 0.335198 0.333060
vt 0.667820 0.000438
vt 0.335198 0.000438
vt 0.336789 0.666915
vt 0.669412 0.666915
vt 0.336789 0.999537
vt 0.669412 0.999537
vt 0.334480 0.666018
vt 0.334480 0.333396
vt 0.667102 0.666018
vt 0.667102 0.333396
vt 0.001649 0.666040
vt 0.001649 0.333418
vt 0.334272 0.666040
vt 0.334272 0.333418
vt 0.116360 0.219327
vt 0.116373 0.302484
vt 0.033207 0.302484
vt 0.033207 0.219317
vt 0.150394 0.302934
vt 0.150394 0.219777
vt 0.319416 0.219777
vt 0.178791 0.006770
vt 0.178791 0.089927
vt 0.009769 0.089927
vt 0.146488 0.203441
vt 0.146488 0.120274
vt 0.315510 0.120274
vt 0.272382 0.884026
vt 0.272382 0.967193
vt 0.103360 0.967193
vt 0.055342 0.882931
vt 0.055342 0.799764
vt 0.224364 0.799764
vt 0.272382 0.800148
vt 0.272382 0.883315
vt 0.103360 0.883315
vt 0.009769 0.173791
vt 0.009769 0.090638
vt 0.178791 0.090638
vt 0.243711 0.724441
vt 0.207004 0.799053
vt 0.055342 0.724441
vt 0.667867 0.666777
vt 0.667867 0.334155
vt 1.000490 0.666777
vt 1.000490 0.334155
vn 0.0000 1.0000 0.0000
vn 0.0000 -0.0000 1.0000
vn 1.0000 0.0000 0.0000
vn 0.0000 0.0000 -1.0000
vn -1.0000 -0.0000 0.0000
vn 0.0000 -1.0000 -0.0000
vn 0.5640 -0.0000 0.8258
vn 0.8257 0.0000 -0.5641
vn -0.5641 0.0000 -0.8257
vn -0.8256 -0.0000 0.5642
usemtl cornellMat
s 1
f 5/1/1 6/2/1 7/3/1
f 7/3/1 8/4/1 5/1/1
f 1/5/2 4/6/2 6/7/2
f 6/8/2 5/9/2 1/10/2
f 4/11/3 3/12/3 7/13/3
f 7/14/3 6/15/3 4/16/3
f 3/17/4 2/18/4 8/19/4
f 8/20/4 7/21/4 3/22/4
f 2/23/5 1/24/5 5/25/5
f 5/26/5 8/27/5 2/28/5
f 9/29/6 10/30/6 11/31/6
f 12/32/6 11/31/6 10/30/6
f 13/33/2 14/34/2 15/35/2
f 16/36/2 15/35/2 14/34/2
f 17/37/1 18/38/1 19/39/1
f 20/40/1 19/39/1 18/38/1
f 21/41/3 22/42/3 23/43/3
f 24/44/3 23/43/3 22/42/3
f 29/45/1 30/46/1 31/47/1
f 31/47/1 32/48/1 29/45/1
f 25/49/7 28/50/7 30/51/7
f 30/52/7 29/53/7 25/54/7
f 28/55/8 27/56/8 31/57/8
f 31/58/8 30/59/8 28/60/8
f 27/61/9 26/62/9 32/63/9
f 32/64/9 31/65/9 27/66/9
f 26/67/10 25/68/10 29/69/10
f 29/70/10 32/71/10 26/72/10
f 33/73/5 34/74/5 35/75/5
f 36/76/5 35/75/5 34/74/5
