# Blender v2.79 (sub 0) OBJ File: ''
# www.blender.org
mtllib cornelltest.mtl
o RedWall
v -1.000000 -1.000000 -1.000000
v 1.000000 -1.000000 -1.000000
v -1.000000 1.000000 -1.000000
v 1.000000 1.000000 -1.000000
vn 0.0000 -0.0000 1.0000
usemtl RedWall
s 1
f 1//1 2//1 3//1
f 4//1 3//1 2//1
o LeftBox
v -0.488900 -1.000500 -0.004800
v -0.771000 -1.000500 -0.417600
v -0.358100 -1.000500 -0.699700
v -0.076000 -1.000500 -0.286800
v -0.488900 0.015800 -0.004800
v -0.076000 0.015800 -0.286800
v -0.358100 0.015800 -0.699700
v -0.771000 0.015800 -0.417600
vn -0.0000 -1.0000 -0.0000
vn 0.0000 1.0000 0.0000
vn 0.5640 -0.0000 0.8258
vn 0.8257 0.0000 -0.5641
vn -0.5641 0.0000 -0.8257
vn -0.8256 -0.0000 0.5642
usemtl LeftBox
s 1
f 5//2 6//2 7//2
f 7//2 8//2 5//2
f 9//3 10//3 11//3
f 11//3 12//3 9//3
f 5//4 8//4 10//4
f 10//4 9//4 5//4
f 8//5 7//5 11//5
f 11//5 10//5 8//5
f 7//6 6//6 12//6
f 12//6 11//6 7//6
f 6//7 5//7 9//7
f 9//7 12//7 6//7
o GreenWall
v -1.000000 -1.000000 1.000000
v -1.000000 -1.000000 -1.000000
v -1.000000 1.000000 1.000000
v -1.000000 1.000000 -1.000000
vn 1.0000 0.0000 0.0000
usemtl Material
s 1
f 13//8 14//8 15//8
f 16//8 15//8 14//8
o Roof
v 1.000000 1.000000 1.000000
v -1.000000 1.000000 1.000000
v 1.000000 1.000000 -1.000000
v -1.000000 1.000000 -1.000000
vn 0.0000 -1.0000 -0.0000
usemtl Roof
s 1
f 17//9 18//9 19//9
f 20//9 19//9 18//9
o Floor
v -1.000000 -1.000000 -1.000000
v -1.000000 -1.000000 1.000000
v 1.000000 -1.000000 -1.000000
v 1.000000 -1.000000 1.000000
vn 0.0000 1.0000 0.0000
usemtl Floor
s 1
f 21//10 22//10 23//10
f 24//10 23//10 22//10
o BlueWall
v 1.000000 -1.000000 -1.000000
v 1.000000 -1.000000 1.000000
v 1.000000 1.000000 -1.000000
v 1.000000 1.000000 1.000000
vn -1.0000 -0.0000 0.0000
usemtl BlueWall
s 1
f 25//11 26//11 27//11
f 28//11 27//11 26//11
o RightBox
v 0.277400 -1.001200 0.464000
v 0.277400 -1.001200 -0.002800
v 0.744400 -1.001200 -0.002800
v 0.744400 -1.001200 0.464000
v 0.277400 -0.534200 0.464000
v 0.744400 -0.534200 0.464000
v 0.744400 -0.534200 -0.002800
v 0.277400 -0.534200 -0.002800
vn 0.0000 -1.0000 -0.0000
vn 0.0000 1.0000 0.0000
vn 0.0000 -0.0000 1.0000
vn 1.0000 0.0000 0.0000
vn 0.0000 0.0000 -1.0000
vn -1.0000 -0.0000 0.0000
usemtl RightBox
s 1
f 29//12 30//12 31//12
f 31//12 32//12 29//12
f 33//13 34//13 35//13
f 35//13 36//13 33//13
f 29//14 32//14 34//14
f 34//14 33//14 29//14
f 32//15 31//15 35//15
f 35//15 34//15 32//15
f 31//16 30//16 36//16
f 36//16 35//16 31//16
f 30//17 29//17 33//17
f 33//17 36//17 30//17
